<?xml version="1.0" encoding="UTF-8"?>
<svg width="11px" height="20px" viewBox="0 0 11 20" version="1.1" xmlns="http://www.w3.org/2000/svg" xmlns:xlink="http://www.w3.org/1999/xlink">
    <!-- Generator: sketchtool 53.1 (72631) - https://sketchapp.com -->
    <title>8E49A42E-E667-438E-B8DE-B057BC561A71@3x</title>
    <desc>Created with sketchtool.</desc>
    <g id="design" stroke="none" stroke-width="1" fill="none" fill-rule="evenodd" opacity="0.8">
        <g id="PRYV_Homepage_def" transform="translate(-612.000000, -4554.000000)" fill="#FFFFFF">
            <path d="M622.586713,4554.0039 L619.947972,4554 C616.983788,4554 615.067638,4555.93217 615.067638,4558.9221 L615.067638,4561.19186 L612.414346,4561.19186 C612.186006,4561.19186 612,4561.37366 612,4561.59916 L612,4564.88793 C612,4565.11238 612.186006,4565.29522 612.414346,4565.29522 L615.067638,4565.29522 L615.067638,4573.59271 C615.067638,4573.81716 615.253644,4574 615.483042,4574 L618.94333,4574 C619.172728,4574 619.358734,4573.81716 619.358734,4573.59271 L619.358734,4565.29522 L622.460504,4565.29522 C622.689902,4565.29522 622.875114,4565.11238 622.875114,4564.88793 L622.876966,4561.59916 C622.876966,4561.49148 622.832516,4561.38797 622.754991,4561.31072 C622.677467,4561.23452 622.57216,4561.19186 622.461563,4561.19186 L619.358734,4561.19186 L619.358734,4559.26776 C619.358734,4558.34316 619.583105,4557.8737 620.807885,4557.8737 L622.585654,4557.87266 C622.815053,4557.87266 623,4557.68982 623,4557.46537 L623,4554.41249 C623,4554.18674 622.815053,4554.00494 622.586713,4554.0039 Z" id="Icon---Facebook"></path>
        </g>
    </g>
</svg>