<?xml version="1.0" encoding="UTF-8"?>
<svg width="640px" height="408px" viewBox="0 0 640 408" version="1.1" xmlns="http://www.w3.org/2000/svg" xmlns:xlink="http://www.w3.org/1999/xlink">
    <!-- Generator: Sketch 57.1 (83088) - https://sketch.com -->
    <title>hero image@3x</title>
    <desc>Created with Sketch.</desc>
    <defs>
        <polygon id="path-1" points="0 2674 1289.31287 2674 1289.31287 0.837552795 0 0.837552795"></polygon>
        <path d="M0.733545151,3.51651858 C0.733545151,3.51651858 -1.93201505,18.2861312 4.0663796,32.1805945 L4.0663796,32.1805945 C10.035301,46.0034972 17.5851672,50.2607589 22.323286,52.7501249 L22.323286,52.7501249 C22.323286,52.7501249 33.6339381,47.5637502 39.6028595,33.7396743 L39.6028595,33.7396743 C45.6024331,19.8440379 43.9872993,3.51651858 43.9872993,3.51651858 L43.9872993,3.51651858 C31.99051,8.22191304 23.2852926,0.942687747 22.3987375,0.161388142 L22.3987375,0.161388142 C22.3987375,0.161388142 12.7315134,8.22191304 0.733545151,3.51651858 L0.733545151,3.51651858 Z" id="path-3"></path>
        <path d="M18.8042105,0.489285714 C17.1518421,0.489285714 16.3988947,0.725 15.4631579,2.23690476 L15.4631579,2.23690476 L10.7082105,11.6238095 L10.6404211,11.6238095 L5.85157895,2.23690476 C4.88194737,0.725 4.16410526,0.489285714 2.51173684,0.489285714 L2.51173684,0.489285714 L0.105210526,0.489285714 L0.105210526,4.2202381 L0.932,4.2202381 C1.72368421,4.2202381 1.93673684,4.35357143 2.404,5.02261905 L2.404,5.02261905 L8.43605263,16.3071429 L8.43605263,24.2083333 L12.8786842,24.2083333 L12.8786842,16.3071429 L18.9107368,5.02261905 C19.378,4.35357143 19.5934737,4.2202381 20.3839474,4.2202381 L20.3839474,4.2202381 L21.2095263,4.2202381 L21.2095263,0.489285714 L18.8042105,0.489285714 Z" id="path-5"></path>
        <polygon id="path-7" points="0 2674 1289.31287 2674 1289.31287 0.837552795 0 0.837552795"></polygon>
        <path d="M1.71666667,0.247619048 C-0.825,1.14404762 0.520238095,2.93452381 0.520238095,2.93452381 L0.520238095,2.93452381 C0.520238095,2.93452381 9.51547619,18.1595238 15.7869048,21.8904762 L15.7869048,21.8904762 C22.0607143,25.622619 21.8261905,22.4869048 21.8261905,22.4869048 L21.8261905,22.4869048 L24.477381,18.5261905 L15.7869048,7.18571429 C15.7869048,7.18571429 9.77261905,3.85 6.42857143,1.84880952 L6.42857143,1.84880952 C6.42857143,1.84880952 4.8702381,0.0535714286 2.84642857,0.0535714286 L2.84642857,0.0535714286 C2.48333333,0.0535714286 2.10357143,0.111904762 1.71666667,0.247619048 L1.71666667,0.247619048 Z" id="path-9"></path>
        <polygon id="path-11" points="0.29826087 0.517609195 0.29826087 72.707954 27.8746087 103.757333 27.8746087 0.517609195"></polygon>
        <polygon id="path-13" points="0.224 0.517609195 95.8696296 0.517609195 95.8696296 103.757333 0.224 103.757333"></polygon>
        <path d="M0.689093023,4.45534615 C0.689093023,4.45534615 -2.3614186,21.2467692 4.50104651,37.0457692 L4.50104651,37.0457692 C11.3267442,52.7603077 19.9635349,57.6027692 25.3825814,60.4322308 L25.3825814,60.4322308 C25.3825814,60.4322308 38.3223488,54.534 45.1480465,38.8194615 L45.1480465,38.8194615 C52.0105116,23.0192885 50.1650233,4.45534615 50.1650233,4.45534615 L50.1650233,4.45534615 C36.4412791,9.80692308 26.4832326,1.53086538 25.4703488,0.641673077 L25.4703488,0.641673077 C25.4703488,0.641673077 14.4116512,9.80692308 0.689093023,4.45534615 L0.689093023,4.45534615 Z" id="path-15"></path>
        <path d="M21.3095238,0.851875 C19.4607143,0.851875 18.6190476,1.12375 17.5738095,2.86858333 L17.5738095,2.86858333 L12.2571429,13.7012917 L12.1821429,13.7012917 L6.82619048,2.86858333 C5.74285714,1.12375 4.93928571,0.851875 3.09285714,0.851875 L3.09285714,0.851875 L0.402380952,0.851875 L0.402380952,5.15716667 L1.325,5.15716667 C2.20952381,5.15716667 2.45,5.31183333 2.97142857,6.08395833 L2.97142857,6.08395833 L9.71666667,19.1061667 L9.71666667,28.22425 L14.6845238,28.22425 L14.6845238,19.1061667 L21.4285714,6.08395833 C21.952381,5.31183333 22.1916667,5.15716667 23.075,5.15716667 L23.075,5.15716667 L24,5.15716667 L24,0.851875 L21.3095238,0.851875 Z" id="path-17"></path>
        <path d="M68.9084393,15.0255806 C51.6647399,30.427129 31.6470231,44.1207097 8.35760116,78.2299355 L8.35760116,78.2299355 C8.35760116,78.2299355 -2.28936416,90.9376452 1.03803468,95.954129 L1.03803468,95.954129 C1.03803468,95.954129 4.6984104,107.656871 18.6715896,110.668194 L18.6715896,110.668194 L91.5319075,43.784129 C91.5319075,43.784129 143.855491,64.615129 159.186647,64.615129 L159.186647,64.615129 C174.517803,64.615129 200.991243,68.0346452 204.318642,34.3407742 L204.318642,34.3407742 C207.644855,0.646903226 129.719971,0.0704193548 129.719971,0.0704193548 L129.719971,0.0704193548 C129.719971,0.0704193548 79.2864162,5.75887097 68.9084393,15.0255806 L68.9084393,15.0255806 Z" id="path-19"></path>
        <path d="M1.452,2.69661538 C1.452,2.69661538 -0.389888889,5.02646154 2.37355556,6.33230769 L2.37355556,6.33230769 C5.13822222,7.63569231 23.8736667,15.3513846 26.1775556,15.0436923 L26.1775556,15.0436923 C28.4802222,14.7335385 30.9368889,15.1987692 31.7056667,12.112 L31.7056667,12.112 C32.472,9.02523077 31.7056667,3.77846154 31.7056667,3.77846154 L31.7056667,3.77846154 L17.9373333,0.537846154 C17.9373333,0.537846154 11.7406667,1.46338462 7.59488889,0.537846154 L7.59488889,0.537846154 C7.05344444,0.417230769 6.54866667,0.364307692 6.07933333,0.364307692 L6.07933333,0.364307692 C2.96022222,0.364307692 1.452,2.69661538 1.452,2.69661538 L1.452,2.69661538 Z" id="path-21"></path>
        <path d="M1.452,2.69661538 C1.452,2.69661538 -0.389888889,5.02646154 2.37355556,6.33230769 L2.37355556,6.33230769 C5.13822222,7.63569231 23.8736667,15.3513846 26.1775556,15.0436923 L26.1775556,15.0436923 C28.4802222,14.7335385 30.9368889,15.1987692 31.7056667,12.112 L31.7056667,12.112 C32.472,9.02523077 31.7056667,3.77846154 31.7056667,3.77846154 L31.7056667,3.77846154 L17.9373333,0.537846154 C17.9373333,0.537846154 11.7406667,1.46338462 7.59488889,0.537846154 L7.59488889,0.537846154 C7.05344444,0.417230769 6.54866667,0.364307692 6.08055556,0.364307692 L6.08055556,0.364307692 C2.96022222,0.364307692 1.452,2.69661538 1.452,2.69661538 L1.452,2.69661538 Z" id="path-23"></path>
        <path d="M26.649411,15.2821935 C23.8546849,20.5815484 24.370726,28.8862581 24.9928356,34.6952581 L24.9928356,34.6952581 C25.926,43.4224839 28.5491096,53.2680645 27.9091233,63.0289032 L27.9091233,63.0289032 C26.2537397,88.2784194 0.421890411,84.6571935 0.421890411,88.8489355 L0.421890411,88.8489355 C29.2129315,91.5093548 20.5546438,94.5994516 31.7764521,94.5994516 L31.7764521,94.5994516 C42.9970685,94.5994516 75.6649726,110.727871 75.6649726,110.727871 L75.6649726,110.727871 C75.6649726,110.727871 74.7913973,94.1721613 81.6465205,89.7393226 L81.6465205,89.7393226 C88.5016438,85.3076774 86.2193836,12.3233871 86.2193836,12.3233871 L86.2193836,12.3233871 C86.2193836,12.3233871 80.9445616,4.31945161 65.103411,1.01929032 L65.103411,1.01929032 C62.0762877,0.389096774 59.0324795,0.0835483871 56.0446849,0.0835483871 L56.0446849,0.0835483871 C43.402274,0.0835483871 31.7681096,5.57625806 26.649411,15.2821935 L26.649411,15.2821935 Z" id="path-25"></path>
        <polygon id="path-27" points="21.3464808 15.312 60.5096538 10.7889231 58.8861154 4.64123077 0.493865385 0.713846154"></polygon>
        <polygon id="path-29" points="15.2211231 58.9652 76.2347385 62.2394769 62.3735538 4.55463077 0.459630769 0.0459846154"></polygon>
        <path d="M0.586041667,9.4862069 C0.586041667,9.4862069 2.34175,14.8918966 2.925375,17.6496552 L2.925375,17.6496552 C3.51141667,20.4062069 3.51141667,27.3048276 7.75629167,28.022931 L7.75629167,28.022931 L11.9975417,28.7422414 C11.9975417,28.7422414 10.5354583,32.9072414 14.3417083,34.4882759 L14.3417083,34.4882759 C18.143125,36.0705172 26.6389167,29.6365517 27.8013333,28.022931 L27.8013333,28.022931 C28.9613333,26.4093103 23.2737083,15.0910345 23.2737083,15.0910345 L23.2737083,15.0910345 C23.2737083,15.0910345 21.217125,1.00896552 11.1202917,0.576896552 L11.1202917,0.576896552 C10.893125,0.567241379 10.6707917,0.562413793 10.4532917,0.562413793 L10.4532917,0.562413793 C1.00533333,0.561206897 0.586041667,9.4862069 0.586041667,9.4862069 L0.586041667,9.4862069 Z" id="path-31"></path>
        <path d="M0.586041667,9.4862069 C0.586041667,9.4862069 2.34175,14.8918966 2.925375,17.6496552 L2.925375,17.6496552 C3.51141667,20.4062069 3.51141667,27.3048276 7.75629167,28.022931 L7.75629167,28.022931 L11.9975417,28.7422414 C11.9975417,28.7422414 10.5354583,32.9072414 14.3417083,34.4882759 L14.3417083,34.4882759 C18.143125,36.0705172 26.6389167,29.6365517 27.8013333,28.022931 L27.8013333,28.022931 C28.9613333,26.4093103 23.2737083,15.0910345 23.2737083,15.0910345 L23.2737083,15.0910345 C23.2737083,15.0910345 21.217125,1.00896552 11.1202917,0.576896552 L11.1202917,0.576896552 C10.893125,0.567241379 10.6695833,0.562413793 10.4532917,0.562413793 L10.4532917,0.562413793 C1.00533333,0.561206897 0.586041667,9.4862069 0.586041667,9.4862069 L0.586041667,9.4862069 Z" id="path-33"></path>
        <path d="M1.94783333,8.193 C-2.21245833,16.860375 3.527125,19.4172083 3.527125,19.4172083 L3.527125,19.4172083 C2.809375,14.5875 10.5572083,11.7442917 15.148875,12.02825 L15.148875,12.02825 C19.738125,12.3134167 18.8777917,15.8659167 18.8777917,15.8659167 L18.8777917,15.8659167 L23.3607083,17.621625 C23.3607083,17.621625 24.1872083,30.9265833 26.6244167,26.7252083 L26.6244167,26.7252083 C29.06525,22.5250417 27.1971667,15.5819583 25.7749583,12.02825 L25.7749583,12.02825 C24.3503333,8.47695833 20.8860417,10.5939583 20.8860417,10.5939583 L20.8860417,10.5939583 C21.3174167,9.44241667 20.8860417,5.63616667 19.1641667,4.92325 L19.1641667,4.92325 C17.4435,4.21275 15.721625,5.920125 15.721625,5.920125 L15.721625,5.920125 C14.5737083,2.64916667 13.5695833,0.376291667 11.4175417,0.234916667 L11.4175417,0.234916667 C11.0441667,0.21075 10.6405833,0.173291667 10.208,0.173291667 L10.208,0.173291667 C8.14054167,0.173291667 5.38795833,1.026375 1.94783333,8.193 L1.94783333,8.193 Z" id="path-35"></path>
        <path d="M52.3508608,2.62285714 C52.3508608,2.62285714 39.3395949,17.4793846 63.8831139,63.6226813 L63.8831139,63.6226813 C78.7089367,91.4973626 47.2689114,76.9683956 47.2689114,76.9683956 L47.2689114,76.9683956 C47.2689114,76.9683956 15.7777215,71.1648791 6.88103797,72.8050549 L6.88103797,72.8050549 C-2.01683544,74.444044 0.950708861,81.3323077 0.950708861,81.3323077 L0.950708861,81.3323077 C0.950708861,81.3323077 40.1594177,114.875209 76.402962,106.302857 L76.402962,106.302857 C112.645316,97.7281319 78.9469114,27.1934505 76.402962,20.9887912 L76.402962,20.9887912 C74.2814177,15.8130989 65.1860253,0.623076923 57.0377722,0.623076923 L57.0377722,0.623076923 C55.4171646,0.623076923 53.833443,1.2236044 52.3508608,2.62285714 L52.3508608,2.62285714 Z" id="path-37"></path>
        <path d="M6.9265625,0.295777778 C6.9265625,0.295777778 1.9248125,0.468111111 3.9245625,2.35033333 L3.9245625,2.35033333 C5.9255,4.235 7.927625,3.55055556 7.927625,3.55055556 L7.927625,3.55055556 L0.0913125,9.713 C0.0913125,9.713 -0.0749375,11.4253333 4.008875,10.5697778 L4.008875,10.5697778 C8.093875,9.713 16.4289375,12.0083333 16.928875,5.55255556 L16.928875,5.55255556 C17.2934375,0.845777778 11.806,0.208987385 8.80875,0.208987385 L8.80875,0.208987385 C7.694875,0.207777778 6.9265625,0.295777778 6.9265625,0.295777778 L6.9265625,0.295777778 Z" id="path-39"></path>
        <path d="M6.9265625,0.295777778 C6.9265625,0.295777778 1.9248125,0.468111111 3.9245625,2.35033333 L3.9245625,2.35033333 C5.9255,4.235 7.927625,3.55055556 7.927625,3.55055556 L7.927625,3.55055556 L0.0913125,9.713 C0.0913125,9.713 -0.0749375,11.4253333 4.008875,10.5697778 L4.008875,10.5697778 C8.093875,9.713 16.4289375,12.0083333 16.928875,5.55255556 L16.928875,5.55255556 C17.2934375,0.845777778 11.806,0.207777778 8.80875,0.207777778 L8.80875,0.207777778 C7.6960625,0.207777778 6.9265625,0.295777778 6.9265625,0.295777778 L6.9265625,0.295777778 Z" id="path-41"></path>
    </defs>
    <g id="design_def" stroke="none" stroke-width="1" fill="none" fill-rule="evenodd">
        <g id="PRYV_open-Pryv.io_Def" transform="translate(-47.000000, -156.000000)">
            <g id="hero-image" transform="translate(-52.000000, 24.000000)">
                <g id="Group-89">
                    <polygon id="Fill-80" fill="#DFE3E7" points="307.678529 475.573391 322.614996 470.434186 325.192623 476.102497 314.882117 486.924248"></polygon>
                    <mask id="mask-2" fill="white">
                        <use xlink:href="#path-1"></use>
                    </mask>
                    <g id="Clip-83"></g>
                    <polygon id="Fill-82" fill="#FFFFFF" mask="url(#mask-2)" points="608.762511 504.135602 737.719788 504.135602 737.719788 363.781447 608.762511 363.781447"></polygon>
                    <polygon id="Stroke-84" stroke="#BD1026" mask="url(#mask-2)" points="608.762511 504.135602 737.719788 504.135602 737.719788 363.781447 608.762511 363.781447"></polygon>
                    <polygon id="Fill-85" fill="#FFFFFF" mask="url(#mask-2)" points="608.46701 504.252812 574.308712 462.179427 574.308712 363.782396 609.255014 363.782396"></polygon>
                    <polygon id="Stroke-86" stroke="#BD1026" stroke-linecap="round" stroke-linejoin="round" mask="url(#mask-2)" points="608.46701 504.252812 574.308712 462.179427 574.308712 363.782396 609.255014 363.782396"></polygon>
                    <path d="M675.151109,398.10474 C675.151109,398.10474 661.079785,409.890983 643.617908,403.010237 C643.617908,403.010237 639.737227,424.606287 648.469352,444.924653 C657.155194,465.13625 668.145709,471.362138 675.040741,475.000629 C675.040741,475.000629 691.505746,467.416386 700.192775,447.20479 C708.9249,426.885237 706.57513,403.010237 706.57513,403.010237 C689.113253,409.890983 676.441109,399.247181 675.151109,398.10474" id="Fill-87" fill="#BD1026" mask="url(#mask-2)"></path>
                    <path d="M672.3175,451.214129 L678.615596,451.214129 L678.615596,439.830055 L687.166148,423.568955 C687.827169,422.608024 688.132165,422.413465 689.253646,422.413465 L690.423784,422.413465 L690.423784,417.036993 L687.013057,417.036993 C684.671594,417.036993 683.60233,417.377471 682.280288,419.555583 L675.538347,433.082179 L675.44222,433.082179 L668.651622,419.555583 C667.278549,417.377471 666.260316,417.036993 663.918853,417.036993 L660.508126,417.036993 L660.508126,422.413465 L661.678264,422.413465 C662.798558,422.413465 663.103554,422.608024 663.765762,423.568955 L672.3175,439.830055 L672.3175,451.214129 Z" id="Fill-88" fill="#FFFFFF" mask="url(#mask-2)"></path>
                </g>
                <g id="Group-27" transform="translate(126.000000, 201.000000)">
                    <path d="M72.3789322,49.735795 L65.5996102,39.0825933 C65.5996102,39.0825933 70.5968983,44.4820639 75.6380847,39.4747866 L80.6780847,34.4663244 L85.2802881,33.8134588 C85.2802881,33.8134588 83.9657119,25.7586857 85.0607966,20.097358 C86.1570678,14.4360303 79.6257119,0.651206723 65.9946949,6.38007227 C60.2962203,8.77588739 55.6940169,10.5164672 54.5989322,24.8866185 C54.5989322,24.8866185 52.4075763,37.9510387 45.3945254,44.2652319 C38.3814746,50.5782403 73.2272373,55.8035345 73.2272373,55.8035345 L72.3789322,49.735795 Z" id="Fill-1" fill="#F4B39D"></path>
                    <path d="M133.932424,71.915095 C133.932424,71.915095 128.015644,71.6970782 125.604797,74.0928933 C123.193949,76.4875235 128.672932,68.6495824 127.796153,66.0369353 C126.920559,63.4242882 120.345305,70.3913471 120.345305,70.3913471 L109.606831,76.0514899 L110.703102,82.1488513 C110.703102,82.1488513 125.824288,85.4143639 133.932424,71.915095" id="Fill-3" fill="#F4B39D"></path>
                    <path d="M111.141017,73.4390798 L113.112881,83.8896681 C113.112881,83.8896681 89.0067797,104.574013 77.1720339,104.355996 C65.3384746,104.137979 76.2952542,83.8896681 76.2952542,83.8896681 L111.141017,73.4390798 Z" id="Fill-5" fill="#FFFFFF"></path>
                    <path d="M100.621797,267.648451 L114.208915,265.906687 L99.7450169,209.299334 C99.7450169,209.299334 99.7450169,201.461392 96.6768814,198.412712 C93.6087458,195.364031 75.6377288,134.402266 75.6377288,134.402266 L33.5606102,140.497258 C33.5606102,140.497258 20.4112881,208.864485 13.3970508,217.137275 C6.384,225.41125 1.12569492,255.892132 2.00128814,267.213603 L12.0824746,269.391401 C12.0824746,269.391401 29.6145085,224.539182 34.8751864,216.701241 C40.134678,208.864485 56.3521356,180.124182 57.6667119,172.286241 C57.6667119,172.286241 57.2289153,185.349476 75.6377288,205.814619 C75.6377288,205.814619 89.6638305,265.906687 100.621797,267.648451" id="Fill-7" fill="#1A1A1A"></path>
                    <path d="M78.2671186,142.240445 C78.2671186,142.240445 77.3915254,104.355285 78.2671186,94.3407303 C79.1438983,84.3261756 83.3688136,68.9631 71.3062712,47.4635622 C71.3062712,47.4635622 65.9945763,50.7954277 59.419322,45.1352849 C52.8452542,39.475142 41.0176271,38.6516546 31.4371186,59.7992849 C27.5752542,68.3256378 26.1088136,86.5027891 28.7391525,112.194411 C31.3683051,137.886033 33.9974576,145.722789 33.120678,150.078386 C32.2450847,154.432797 78.2671186,142.240445 78.2671186,142.240445" id="Fill-9" fill="#DFE3E7"></path>
                    <path d="M89.0064237,15.7423538 C89.0064237,15.7423538 94.0464237,17.0492697 91.8550678,19.6619168 C91.8550678,19.6619168 83.3079492,27.7166899 75.4181186,16.1783874 L70.8159153,20.750816 C70.8159153,20.750816 69.7208305,17.2661017 66.2137119,18.5730176 C62.7077797,19.8787487 65.1174407,25.3220597 65.1174407,25.3220597 C65.1174407,25.3220597 56.8645593,33.5474546 52.7665932,30.9750933 C51.401,30.1184294 55.6401525,22.3823874 53.9411695,20.3147824 C47.1476102,12.0419924 60.7347288,-2.32815882 75.6376102,0.719336975 C90.5404915,3.76801765 94.2659153,9.42934538 89.0064237,15.7423538" id="Fill-11" fill="#1A1A1A"></path>
                    <polygon id="Fill-13" fill="#1A1A1A" points="133.494508 63.2067454 139.63078 69.084905 121.003661 77.7949134 114.646712 71.4795353"></polygon>
                    <polygon id="Fill-15" fill="#1A1A1A" points="66.6517458 115.67794 73.8842881 111.758377 89.6639492 142.675293 70.8161525 147.465739"></polygon>
                    <polygon id="Fill-17" fill="#525252" points="91.1974237 143.329225 68.1852203 111.32341 21.7253898 135.926133 39.4769153 165.319301"></polygon>
                    <path d="M69.0629492,153.56156 C69.0629492,153.56156 71.0348136,151.384946 68.1861695,149.425165 C65.3375254,147.465383 57.4476949,139.627442 57.4476949,139.627442 L48.4627797,141.587224 L56.1331186,151.166929 C56.1331186,151.166929 57.4476949,156.609055 64.2424407,156.609055 C71.0348136,156.609055 69.0629492,153.56156 69.0629492,153.56156" id="Fill-19" fill="#F4B39E"></path>
                    <path d="M57.6665932,137.88627 C57.6665932,137.88627 39.0394746,112.630682 39.9150678,98.9122109 C40.7918475,85.1961101 63.5833729,57.5458916 46.9281186,49.0539 C30.2728644,40.5630933 23.2598136,89.9865555 23.2598136,89.9865555 C23.2598136,89.9865555 21.3793051,106.250135 27.2035424,115.895009 C32.4642203,124.605018 45.3940508,143.546413 45.3940508,143.546413 C45.3940508,143.546413 57.2287966,141.151782 57.6665932,137.88627" id="Fill-21" fill="#FFFFFF"></path>
                    <path d="M122.756271,271.132455 C122.756271,271.132455 127.138983,272.221354 123.631864,274.397967 C120.125932,276.575766 106.97661,278.535547 106.97661,278.535547 C106.97661,278.535547 104.346271,279.188413 104.127966,275.703698 C103.908475,272.221354 101.497627,265.472312 101.497627,265.472312 L108.072881,265.254295 L110.482542,269.39069 L122.756271,271.132455 Z" id="Fill-23" fill="#1A1A1A"></path>
                    <path d="M21.0676271,277.446766 C21.0676271,277.446766 22.6016949,280.712279 20.410339,281.148313 C18.2189831,281.583161 0.0296610169,278.753682 0.905254237,274.834119 C1.7820339,270.914556 4.19288136,269.390808 5.06966102,265.47243 C5.60355932,263.084909 7.70949153,263.17022 8.57677966,265.689262 C9.1320339,267.306615 8.20542373,271.274758 9.23288136,271.786624 C11.8632203,273.092355 18.6579661,274.398086 21.0676271,277.446766" id="Fill-25" fill="#1A1A1A"></path>
                </g>
                <polygon id="Fill-28" fill="#FFFFFF" points="281 329 281 391.932464 305 419 305 329"></polygon>
                <polygon id="Stroke-29" stroke="#BD1026" points="281 329 305 329 305 419 281 391.932464"></polygon>
                <polygon id="Fill-30" fill="#FFFFFF" points="304 419 388 419 388 329 304 329"></polygon>
                <polygon id="Stroke-31" stroke="#BD1026" points="304 419 388 419 388 329 304 329"></polygon>
                <g id="Group-34" transform="translate(325.000000, 348.000000)">
                    <mask id="mask-4" fill="white">
                        <use xlink:href="#path-3"></use>
                    </mask>
                    <g id="Clip-33"></g>
                    <polygon id="Fill-32" fill="#BD1026" mask="url(#mask-4)" points="-3.52592809 56.4032285 47.8553679 56.4032285 47.8553679 -3.49054229 -3.52592809 -3.49054229"></polygon>
                </g>
                <g id="Group-37" transform="translate(336.000000, 363.000000)">
                    <mask id="mask-6" fill="white">
                        <use xlink:href="#path-5"></use>
                    </mask>
                    <g id="Clip-36"></g>
                    <polygon id="Fill-35" fill="#FFFFFF" mask="url(#mask-6)" points="-3.66194737 27.9130952 24.9778947 27.9130952 24.9778947 -3.21666667 -3.66194737 -3.21666667"></polygon>
                </g>
                <g id="Group-74">
                    <path d="M317.523433,243.319289 C317.617463,246.955407 319.534068,259.582761 341.517472,261.030091 C341.517472,261.030091 358.912891,260.802314 363.51037,251.451619 C363.812992,250.83947 363.398815,250.101569 362.718806,250.032761 C360.357168,249.797867 355.49979,248.339861 352.890121,240.638171 C349.354786,230.205538 347.045365,220.523855 336.904565,229.225625 C336.904565,229.225625 331.150002,225.284619 327.284749,233.800134 C323.658033,241.786544 322.686083,243.620619 318.432762,242.584948 C317.962808,242.469873 317.510655,242.835265 317.523433,243.319289" id="Fill-38" fill="#FFD28E"></path>
                    <path d="M324.882999,287.731535 C324.882999,287.731535 316.945998,297.289839 312.057764,307.801957 C309.895501,312.455951 306.88115,321.478032 310.039098,326.977883 C312.347332,330.992442 320.589328,333.590516 320.589328,333.590516 L340.982484,321.8541 L343.503146,292.991746 L324.882999,287.731535 Z" id="Fill-40" fill="#DFE3E7"></path>
                    <path d="M300.043438,283.785546 C300.182288,284.669366 303.463659,298.723881 316.953475,302.276956 L320.035471,293.030658 L309.081745,282.730894 L300.043438,283.785546 Z" id="Fill-42" fill="#F5D9DC"></path>
                    <path d="M326.431355,412.132207 C327.060334,411.176021 327.65015,405.380773 324.868402,402.749481 C325.213747,403.257232 325.684888,405.771077 324.921806,405.91581 C323.800325,406.125791 322.551861,403.621437 322.148365,402.392394 C321.709267,403.150462 321.452928,404.16122 321.484971,404.953692 C321.651116,408.672853 324.958595,414.373195 326.431355,412.132207" id="Fill-44" fill="#30193B"></path>
                    <path d="M322.539638,400.131001 C322.558626,401.236666 322.564559,401.834579 322.558626,401.840511 C322.413842,401.984057 322.274992,402.176243 322.149196,402.393343 C322.006786,403.884566 323.439196,407.346293 325.211017,406.996324 C326.089214,406.824306 326.472535,405.163436 325.373603,403.507312 C324.568984,402.290132 324.174983,401.744417 324.030199,401.594939 C324.177356,401.177349 324.341128,400.718237 324.520328,400.224722 C325.799647,396.698933 322.496914,397.381076 322.539638,400.131001" id="Fill-46" fill="#FF97A6"></path>
                    <path d="M347.602783,289.545798 C347.602783,289.545798 357.497925,302.449568 362.471605,312.125319 C364.817815,316.687965 364.779839,323.887835 362.875101,330.232357 C361.542378,334.666878 352.660722,338.841593 352.660722,338.841593 L331.62672,322.643369 L328.982636,292.349108 L347.602783,289.545798 Z" id="Fill-48" fill="#DFE3E7"></path>
                    <path d="M343.880296,411.820557 C343.368806,410.799122 343.462559,404.973029 346.537435,402.685775 C346.133939,403.147259 345.370857,405.59111 346.111391,405.823632 C347.198456,406.162924 348.735301,403.822284 349.281207,402.652557 C349.628925,403.453334 349.765402,404.490191 349.636046,405.270799 C349.036736,408.946066 345.078916,414.215768 343.880296,411.820557" id="Fill-50" fill="#30193B"></path>
                    <path d="M349.158141,400.358066 C349.009797,401.453053 348.932658,402.046221 348.938592,402.054525 C349.066761,402.211122 349.178316,402.41873 349.280376,402.652439 C349.24596,404.149594 347.412428,407.416761 345.696384,406.861557 C344.846669,406.587513 344.661535,404.896985 345.945602,403.377289 C346.887883,402.26332 347.344783,401.769805 347.503808,401.638122 C347.407681,401.205109 347.30206,400.730575 347.179824,400.219265 C346.324176,396.570097 349.526034,397.630681 349.158141,400.358066" id="Fill-52" fill="#FF97A6"></path>
                    <path d="M316.952406,253.892029 C320.236151,251.009234 330.103998,247.609197 348.194854,250.397085 C349.992784,250.672315 351.742057,251.209725 353.517439,252.069818 C352.595332,258.123688 352.118258,260.567539 352.118258,260.567539 C350.444937,264.528712 352.539555,274.496302 351.82869,278.493066 C350.913704,283.640576 350.293032,294.954657 350.293032,294.954657 C350.293032,294.954657 338.140686,296.501638 332.206924,296.604849 C327.334118,296.687893 317.785507,294.949911 317.551717,292.058812 C317.088883,286.318135 318.028791,278.878625 317.525608,270.583768 C316.94766,261.085967 316.952406,253.892029 316.952406,253.892029" id="Fill-54" fill="#F5D9DC"></path>
                    <path d="M353.33373,251.982741 C358.039203,255.723257 358.922147,257.783921 361.0405,261.236157 C365.351972,268.266381 370.985487,289.677362 371.800786,293.423809 C373.347124,300.497927 359.115588,286.598822 359.115588,286.598822 C359.115588,286.598822 360.019893,280.642232 355.327474,271.796915 C354.204806,269.682865 350.670657,262.312163 350.670657,262.312163 C350.670657,262.312163 351.927428,257.945263 353.33373,251.982741" id="Fill-56" fill="#F5D9DC"></path>
                    <path d="M320.024672,251.982741 C314.634442,254.646064 313.336134,256.475393 310.536585,259.405642 C304.835426,265.366977 300.207091,278.581567 300.019584,282.407499 C299.570992,291.615834 310.031029,285.132511 310.031029,285.132511 C310.031029,285.132511 310.624405,280.310058 315.024883,271.279673 C316.073972,269.12766 319.278204,260.924151 319.278204,260.924151 C319.278204,260.924151 320.1386,258.107791 320.024672,251.982741" id="Fill-58" fill="#F5D9DC"></path>
                    <path d="M338.662739,244.580839 C338.662739,244.580839 338.884661,251.17805 338.332822,251.847143 C337.779795,252.513863 335.946262,253.255323 335.13571,251.514969 C334.326345,249.773429 335.979491,244.241547 335.979491,244.241547 L338.662739,244.580839 Z" id="Fill-60" fill="#F4B39D"></path>
                    <path d="M335.079339,248.236057 C335.079339,248.236057 334.771971,250.341802 336.625678,252.461783 L334.604638,254.518889 C334.604638,254.518889 332.527822,252.480765 335.079339,248.236057" id="Fill-62" fill="#FFFFFF"></path>
                    <path d="M338.684812,248.698253 C338.684812,248.698253 339.017103,250.594017 336.473892,252.438768 L337.959707,255.066501 C337.959707,255.066501 341.50335,252.46724 338.684812,248.698253" id="Fill-64" fill="#FFFFFF"></path>
                    <path d="M333.331609,242.503684 C333.056282,241.726634 333.458592,239.31956 333.682888,238.141529 C333.776641,237.652758 334.037727,237.198392 334.463771,236.940957 C336.749456,235.549386 341.219953,236.780802 342.015077,237.460572 C342.977534,238.286261 342.810201,239.804771 342.708141,240.932976 C342.60964,242.063553 341.185537,247.61323 337.546954,246.999895 C333.585574,246.335547 333.710183,244.747044 333.331609,242.503684" id="Fill-66" fill="#F4B39D"></path>
                    <path d="M371.656595,307.016366 L313.515215,306.98908 L313.936512,274.908198 C313.967368,272.437061 316.001462,270.461813 318.474654,270.49503 L367.637064,271.135652 C370.11263,271.166496 372.09332,273.196316 372.060503,275.667453 L371.656595,307.016366 Z" id="Fill-68" fill="#B8C3CC"></path>
                    <mask id="mask-8" fill="white">
                        <use xlink:href="#path-7"></use>
                    </mask>
                    <g id="Clip-71"></g>
                    <polygon id="Fill-70" fill="#B8C3CC" mask="url(#mask-8)" points="313.872309 310.662093 371.657663 310.662093 371.657663 306.808876 313.872309 306.808876"></polygon>
                    <path d="M325.314146,401.422802 L321.278001,401.422802 C321.278001,401.422802 306.832849,330.827541 321.273254,314.247317 C324.195039,310.893547 332.985315,308.220734 336.801911,315.723119 C341.277155,324.51505 325.314146,401.422802 325.314146,401.422802" id="Fill-72" fill="#DFE3E7" mask="url(#mask-8)"></path>
                    <path d="M346.25036,401.31615 L350.25921,401.789498 C350.25921,401.789498 372.917876,333.379467 360.53174,315.217858 C358.026505,311.544964 349.61243,307.861393 344.937811,314.860771 C339.455015,323.06784 346.25036,401.31615 346.25036,401.31615" id="Fill-73" fill="#DFE3E7" mask="url(#mask-8)"></path>
                </g>
                <path d="M308.063849,476.232788 C308.063849,476.232788 301.878318,472.850081 298.44096,470.820698 C298.44096,470.820698 296.211819,468.287892 293.597076,469.19695 C290.982334,470.106007 292.365601,471.922915 292.365601,471.922915 C292.365601,471.922915 301.613906,487.362403 308.063849,491.145916 C314.515015,494.92943 314.272638,491.750747 314.272638,491.750747 L317,487.733028 L308.063849,476.232788 Z" id="Fill-75" fill="#DFE3E7"></path>
                <g id="Group-79" transform="translate(292.000000, 469.000000)">
                    <mask id="mask-10" fill="white">
                        <use xlink:href="#path-9"></use>
                    </mask>
                    <g id="Clip-78"></g>
                    <polygon id="Fill-77" fill="#DFE3E7" mask="url(#mask-10)" points="-4.04880952 27.9333333 28.6916667 27.9333333 28.6916667 -4.15952381 -4.04880952 -4.15952381"></polygon>
                </g>
                <g id="Group-92" transform="translate(409.000000, 435.000000)">
                    <mask id="mask-12" fill="white">
                        <use xlink:href="#path-11"></use>
                    </mask>
                    <g id="Clip-91"></g>
                    <polygon id="Fill-90" fill="#FFFFFF" mask="url(#mask-12)" points="-4.01130435 107.989057 32.1841739 107.989057 32.1841739 -3.71291954 -4.01130435 -3.71291954"></polygon>
                </g>
                <polygon id="Stroke-93" stroke="#BD1026" points="409 436 436 436 436 539 409 508.022718"></polygon>
                <g id="Group-97" transform="translate(435.000000, 435.000000)">
                    <mask id="mask-14" fill="white">
                        <use xlink:href="#path-13"></use>
                    </mask>
                    <g id="Clip-96"></g>
                    <polygon id="Fill-95" fill="#FFFFFF" mask="url(#mask-14)" points="-3.96918519 107.989057 100.06637 107.989057 100.06637 -3.71291954 -3.96918519 -3.71291954"></polygon>
                </g>
                <polygon id="Stroke-98" stroke="#BD1026" points="436 539 532 539 532 436 436 436"></polygon>
                <g id="Group-102" transform="translate(459.000000, 458.000000)">
                    <mask id="mask-16" fill="white">
                        <use xlink:href="#path-15"></use>
                    </mask>
                    <g id="Clip-101"></g>
                    <polygon id="Fill-100" fill="#BD1026" mask="url(#mask-16)" points="-4.18437209 64.5849231 54.5889767 64.5849231 54.5889767 -3.51101923 -4.18437209 -3.51101923"></polygon>
                </g>
                <g id="Group-105" transform="translate(472.000000, 474.000000)">
                    <mask id="mask-18" fill="white">
                        <use xlink:href="#path-17"></use>
                    </mask>
                    <g id="Clip-104"></g>
                    <polygon id="Fill-103" fill="#FFFFFF" mask="url(#mask-18)" points="-3.81190476 32.5005417 28.2119048 32.5005417 28.2119048 -3.425625 -3.81190476 -3.425625"></polygon>
                </g>
                <path d="M415.855791,380.665512 C412.617781,391.311996 419.611648,377.445004 419.611648,377.445004 C419.611648,377.445004 450.781876,397.867023 465.025612,371.558761 C479.26701,345.250499 470.090701,308.11122 470.090701,308.11122 C477.048331,308.11122 453.957931,304.18079 458.625575,343.05021 C463.294387,381.918455 417.459599,375.390461 415.855791,380.665512" id="Fill-106" fill="#DFE3E7"></path>
                <g id="Group-110" transform="translate(313.000000, 375.000000)">
                    <mask id="mask-20" fill="white">
                        <use xlink:href="#path-19"></use>
                    </mask>
                    <g id="Clip-109"></g>
                    <polygon id="Fill-108" fill="#97A4B1" mask="url(#mask-20)" points="-3.80020231 114.892161 208.616532 114.892161 208.616532 -4.15354839 -3.80020231 -4.15354839"></polygon>
                </g>
                <g id="Group-115" transform="translate(349.000000, 515.000000)" fill="#DFE3E7">
                    <polygon id="Fill-111" points="17.6112 9.53864 21.6528 0.12464 35.8044 4.15904 31.9224 13.57184"></polygon>
                    <path d="M17.6112,7.9238 C17.6112,7.9238 11.5272,8.8274 7.4568,7.9238 C3.3852,7.0202 1.4268,10.0298 1.4268,10.0298 C1.4268,10.0298 -0.3828,12.3002 2.3304,13.5734 C5.0448,14.8454 23.4396,22.367 25.7004,22.067 C27.9624,21.7658 30.3744,22.2182 31.1292,19.2086 C31.8828,16.199 31.1292,11.0846 31.1292,11.0846 L17.6112,7.9238 Z" id="Fill-113"></path>
                </g>
                <g id="Group-118" transform="translate(349.000000, 523.000000)">
                    <mask id="mask-22" fill="white">
                        <use xlink:href="#path-21"></use>
                    </mask>
                    <g id="Clip-117"></g>
                    <polygon id="Fill-116" fill="#DFE3E7" mask="url(#mask-22)" points="0.337333333 15.2393846 32.3497778 15.2393846 32.3497778 -0.443076923 0.337333333 -0.443076923"></polygon>
                </g>
                <g id="Group-121" transform="translate(349.000000, 523.000000)">
                    <mask id="mask-24" fill="white">
                        <use xlink:href="#path-23"></use>
                    </mask>
                    <g id="Clip-120"></g>
                    <polygon id="Fill-119" fill="#DFE3E7" mask="url(#mask-24)" points="-3.476 19.4092308 36.3721111 19.4092308 36.3721111 -3.99261538 -3.476 -3.99261538"></polygon>
                </g>
                <polygon id="Fill-122" fill="#DFE3E7" points="367 525.019659 375.312071 509 383 511.057082 379.891085 529"></polygon>
                <g id="Group-126" transform="translate(436.000000, 300.000000)">
                    <mask id="mask-26" fill="white">
                        <use xlink:href="#path-25"></use>
                    </mask>
                    <g id="Clip-125"></g>
                    <polygon id="Fill-124" fill="#FFFFFF" mask="url(#mask-26)" points="-3.79582192 114.953032 90.8029726 114.953032 90.8029726 -4.1416129 -3.79582192 -4.1416129"></polygon>
                </g>
                <g id="Group-129" transform="translate(416.000000, 373.000000)">
                    <mask id="mask-28" fill="white">
                        <use xlink:href="#path-27"></use>
                    </mask>
                    <g id="Clip-128"></g>
                    <polygon id="Fill-127" fill="#C8C8C8" mask="url(#mask-28)" points="-3.65882692 19.6689231 64.6611731 19.6689231 64.6611731 -3.64184615 -3.65882692 -3.64184615"></polygon>
                </g>
                <g id="Group-132" transform="translate(361.000000, 326.000000)">
                    <mask id="mask-30" fill="white">
                        <use xlink:href="#path-29"></use>
                    </mask>
                    <g id="Clip-131"></g>
                    <polygon id="Fill-130" fill="#525252" mask="url(#mask-30)" points="-3.73272308 66.4330154 80.4282769 66.4330154 80.4282769 -4.14873846 -3.73272308 -4.14873846"></polygon>
                </g>
                <path d="M477.256682,302.035483 C477.256682,302.035483 475.814434,306.180364 479.567854,307.753306 C483.318889,309.326248 491.69942,302.925216 492.846066,301.319855 C493.990328,299.714494 488.379867,288.454152 488.379867,288.454152 C488.379867,288.454152 486.351185,274.444165 476.391333,274.014308 C466.433866,273.586852 466,282.879215 466,282.879215 C466,282.879215 467.731889,288.256034 468.307596,291.000877 C468.886879,293.743319 468.886879,300.606628 473.072972,301.319855 L477.256682,302.035483 Z" id="Fill-133" fill="#F4B39D"></path>
                <g id="Group-137" transform="translate(466.000000, 273.000000)">
                    <mask id="mask-32" fill="white">
                        <use xlink:href="#path-31"></use>
                    </mask>
                    <g id="Clip-136"></g>
                    <polygon id="Fill-135" fill="#F4B39D" mask="url(#mask-32)" points="-382.397625 2442.75862 839.092042 2442.75862 839.092042 -213.471034 -382.397625 -213.471034"></polygon>
                </g>
                <g id="Group-140" transform="translate(466.000000, 273.000000)">
                    <mask id="mask-34" fill="white">
                        <use xlink:href="#path-33"></use>
                    </mask>
                    <g id="Clip-139"></g>
                    <polygon id="Fill-138" fill="#F4B39D" mask="url(#mask-34)" points="-3.69145833 39.0093103 32.2347083 39.0093103 32.2347083 -3.7087931 -3.69145833 -3.7087931"></polygon>
                </g>
                <g id="Group-143" transform="translate(463.000000, 263.000000)">
                    <mask id="mask-36" fill="white">
                        <use xlink:href="#path-35"></use>
                    </mask>
                    <g id="Clip-142"></g>
                    <polygon id="Fill-141" fill="#1A1A1A" mask="url(#mask-36)" points="-3.8425 31.8219583 32.0836667 31.8219583 32.0836667 -4.103 -3.8425 -4.103"></polygon>
                </g>
                <path d="M533.422766,412.598855 C569.424387,404.031838 535.949818,333.550812 533.422766,327.349687 C530.895714,321.150933 518.41293,300.567087 509.529245,308.998909 C509.529245,308.998909 496.605586,323.84295 520.986079,369.951146 C535.713424,397.804623 504.482233,383.286708 504.482233,383.286708 C504.482233,383.286708 473.200218,377.488792 464.361447,379.126534 C455.52504,380.765462 458.471691,387.6473 458.471691,387.6473 C458.471691,387.6473 497.419963,421.165872 533.422766,412.598855" id="Fill-144" fill="#DFE3E7"></path>
                <g id="Group-148" transform="translate(457.000000, 306.000000)">
                    <mask id="mask-38" fill="white">
                        <use xlink:href="#path-37"></use>
                    </mask>
                    <g id="Clip-147"></g>
                    <polygon id="Fill-146" fill="#DFE3E7" mask="url(#mask-38)" points="-368.226557 2370.06593 834.602203 2370.06593 834.602203 -241.962725 -368.226557 -241.962725"></polygon>
                </g>
                <path d="M452.894674,376.091064 C452.894674,376.091064 447.850135,376.269889 449.86819,378.224274 C451.885048,380.17866 453.9043,379.467167 453.9043,379.467167 L446.00095,385.862991 C446.00095,385.862991 445.833278,387.638552 449.952027,386.75204 C454.070775,385.862991 462.478339,388.243511 462.982553,381.545842 C463.486768,374.848172 452.894674,376.091064 452.894674,376.091064" id="Fill-149" fill="#F4B39D"></path>
                <g id="Group-153" transform="translate(446.000000, 376.000000)">
                    <mask id="mask-40" fill="white">
                        <use xlink:href="#path-39"></use>
                    </mask>
                    <g id="Clip-152"></g>
                    <polygon id="Fill-151" fill="#F4B39D" mask="url(#mask-40)" points="-356.617063 2367.44444 843.812438 2367.44444 843.812438 -322.515111 -356.617063 -322.515111"></polygon>
                </g>
                <g id="Group-156" transform="translate(446.000000, 376.000000)">
                    <mask id="mask-42" fill="white">
                        <use xlink:href="#path-41"></use>
                    </mask>
                    <g id="Clip-155"></g>
                    <polygon id="Fill-154" fill="#F4B39D" mask="url(#mask-42)" points="-4.1124375 15.136 21.1480625 15.136 21.1480625 -4.11766667 -4.1124375 -4.11766667"></polygon>
                </g>
                <path d="M456,436.341589 C452.090288,436.156635 438.367731,437.526489 435.690854,436.526543 C435.690854,436.526543 392.777757,511.563065 385.084107,518.911117 C385.084107,518.911117 375.401785,523.818967 365.034818,512.795695 C359.765309,507.193373 365.23772,488.421116 375.616552,465.905625 C385.660775,444.118019 395.008488,420.134827 398.462562,416.028843 C398.462562,416.028843 403.40814,405.927957 420.203884,414.357096 C431.401443,419.977317 443.332295,427.306277 456,436.341589" id="Fill-157" fill="#97A4B1"></path>
                <g id="Group-181" transform="translate(589.000000, 236.000000)">
                    <path d="M49.2622107,80.4439399 C49.2622107,80.4439399 53.144099,76.3275594 61.4249841,78.3869339 C69.7058691,80.4439399 62.9775011,83.5300411 59.0956128,83.7870188 C55.2137245,84.0451807 53.660016,82.2451524 50.2964277,84.5591362 C46.9328395,86.8743041 49.2622107,80.4439399 49.2622107,80.4439399" id="Fill-159" fill="#F4B39D"></path>
                    <path d="M58.171609,20.9492155 C58.171609,20.9492155 56.2926226,25.0999386 56.0841111,28.0060369 L55.8744081,30.910951 L56.0841111,33.6086249 L52.7419697,32.15676 C52.7419697,32.15676 51.0714948,38.5906769 48.3572709,38.797917 C45.6418554,39.0063413 38.9599557,32.7796645 38.9599557,32.7796645 L38.1247182,42.5353442 L21.0005628,34.4399538 C21.0005628,34.4399538 31.6501384,32.5712402 32.4853759,19.7034064 C32.4853759,19.7034064 35.8275173,7.87295732 46.2685814,7.87295732 C56.7096456,7.87295732 59.0068465,10.7778714 58.171609,20.9492155" id="Fill-161" fill="#F4B39D"></path>
                    <path d="M86.3637928,177.653639 C86.3637928,177.653639 98.0583089,139.047769 96.387834,129.084849 C96.387834,129.084849 97.6412859,123.273837 93.2553956,121.820788 C88.8706967,120.367738 48.1489977,100.234659 45.8517967,98.3671295 C43.5534043,96.4996001 43.7631073,93.5935018 43.7631073,93.5935018 L7.84432156,105.632375 C7.84432156,105.632375 6.37997513,117.860725 19.8557751,125.38887 C29.6975177,130.88843 47.5091652,131.115802 79.6818931,135.93443 C79.6818931,135.93443 69.8663634,150.048073 77.8017151,174.12582 L86.3637928,177.653639 Z" id="Fill-163" fill="#1A1A1A"></path>
                    <path d="M119.359128,121.19812 L124.997279,116.424492 C124.997279,116.424492 102.234973,89.0273511 93.4643837,81.7621054 C84.6937945,74.4980438 81.3528446,79.4789116 75.9232053,81.3476252 C70.4923745,83.2151545 41.8845975,94.8383635 41.8845975,94.8383635 L54.831374,114.141298 C54.831374,114.141298 69.0316025,108.744766 79.6811782,99.6119912 C79.6811782,99.6119912 81.9783791,111.858105 119.359128,121.19812" id="Fill-165" fill="#1A1A1A"></path>
                    <path d="M43.7632265,93.5930281 C43.7632265,93.5930281 43.4450975,89.3724355 39.6859331,76.7118418 C35.9279603,64.0512481 42.6610943,47.6946752 38.8387807,41.7948457 C36.7679637,38.5986112 32.6716065,35.5669847 24.9685961,33.816694 C3.04152738,28.8358262 -0.318486414,75.0989217 0.0925791034,85.0713153 C0.516751057,95.3575296 3.66825336,109.36696 12.2291396,109.782625 C20.7924088,110.197105 43.7632265,93.5930281 43.7632265,93.5930281" id="Fill-167" fill="#97A4B1"></path>
                    <path d="M141.912566,126.594178 C141.912566,126.594178 136.274415,121.820551 127.712337,120.783166 L121.237757,115.178209 L117.479784,117.877068 L122.282698,127.217083 L141.912566,126.594178 Z" id="Fill-169" fill="#F4B39D"></path>
                    <path d="M88.2440899,196.956337 C88.2440899,196.956337 87.6173639,187.407897 83.2314736,182.427029 L85.5286745,173.709919 L78.0103458,171.842389 C78.0103458,171.842389 76.3410623,180.35226 75.2961219,181.388461 C74.2523729,182.427029 88.2440899,196.956337 88.2440899,196.956337" id="Fill-171" fill="#F4B39D"></path>
                    <path d="M54.621671,85.770721 C54.621671,85.770721 54.831374,76.9422928 51.2807211,76.9422928 C47.7312598,76.9422928 32.4860908,79.81168 28.3099034,79.5902291 C28.3099034,79.5902291 35.4100177,52.2215095 29.7718669,41.4071291 C24.1325246,30.5915644 18.4955653,38.0960244 17.4506248,44.7170495 C16.4068759,51.3392588 4.71116828,100.337924 24.3422276,93.7168985 C43.9720954,87.0946892 54.621671,85.770721 54.621671,85.770721" id="Fill-173" fill="#97A4B1"></path>
                    <path d="M53.1601842,19.4954558 C53.1601842,19.4954558 51.9984773,25.5835778 59.0068465,23.4389388 C61.7234534,22.6087942 60.6785129,18.458071 60.6785129,18.458071 C60.6785129,18.458071 66.3166637,15.5519727 62.1392849,7.87343101 C60.0660849,4.06021319 55.2488736,4.13600385 55.2488736,4.13600385 C55.2488736,4.13600385 55.6670881,0.400945156 51.6982207,0.192520827 C47.7305449,-0.0147192716 47.3135219,2.89137903 47.3135219,2.89137903 C47.3135219,2.89137903 47.5220334,0.816609583 42.5106086,0.816609583 C37.4979922,0.816609583 38.1247182,4.96614848 38.1247182,4.96614848 C38.1247182,4.96614848 34.5740653,2.89137903 32.2780559,6.21195753 C29.980855,9.53372026 31.8598414,11.6084897 31.8598414,11.6084897 C31.8598414,11.6084897 27.2654396,12.8542988 27.8921656,16.3821174 C28.5177,19.9111202 27.2654396,20.3256004 32.4853759,19.7038801 C32.4853759,19.7038801 31.024604,24.8931722 35.4104943,24.6847478 L37.9162067,23.0232744 L39.5854902,25.5148925 L41.8838826,25.099228 C41.8838826,25.099228 40.2134076,18.8737355 44.5981065,18.6653111 C48.9839968,18.458071 47.7305449,23.4389388 47.7305449,23.4389388 L53.1601842,19.4954558 Z" id="Fill-175" fill="#6A5233"></path>
                    <polygon id="Fill-177" fill="#1A1A1A" points="82.0399793 50.744539 93.1077694 45.1419509 85.5894407 78.3501044 54.8929743 88.9347444 54.6832713 87.0672151 74.5216506 79.5947292"></polygon>
                    <polygon id="Fill-179" fill="#FDFEFE" points="82.6357265 52.5208827 89.9753311 48.6081896 83.9201573 75.8596705 75.7131449 79.5947292"></polygon>
                </g>
                <g id="illustration---pryvlab" transform="translate(100.000000, 133.000000)">
                    <g id="icon_bubbble-" transform="translate(6.000000, 72.000000)" fill="#0B0014">
                        <path d="M0,0 L0,0.943959644 L0,14.0071812 L0,14.9511408 L0.915718757,14.9511408 L3.36132529,14.9511408 L3.36132529,17.5364103 L3.36132529,19.9509804 L4.9507596,18.1767296 L7.83952974,14.9511408 L19.0842812,14.9511408 L20,14.9511408 L20,0 L0,0 Z M0.915718757,0.943959644 L19.0842812,0.943959644 L19.0842812,14.0071812 L7.43873578,14.0071812 L4.27742576,17.5364103 L4.27742576,14.0071812 L0.915718757,14.0071812 L0.915718757,0.943959644 Z" id="Fill-1"></path>
                        <polygon id="Fill-2" points="3.52941176 5.39215686 16.4705882 5.39215686 16.4705882 4.18300654 3.52941176 4.18300654"></polygon>
                        <polygon id="Fill-3" points="3.52941176 8.41503268 16.4705882 8.41503268 16.4705882 7.20588235 3.52941176 7.20588235"></polygon>
                        <polygon id="Fill-4" points="3.52941176 11.4869281 11.1764706 11.4869281 11.1764706 10.2777778 3.52941176 10.2777778"></polygon>
                    </g>
                    <g id="Group-5" transform="translate(170.000000, 51.000000)" fill="#0B0014">
                        <g id="Group-4">
                            <polygon id="Fill-1" points="8.87292 13.7066143 7.05292 12.1007571 3.49052 16.8081857 4.23572 17.4561857 7.18932 13.5536143 9.06132 15.2053286 12.88972 9.38404286 15.55692 13.0320429 17.59772 10.7271857 18.77412 12.1230429 19.48692 11.4339 17.61492 9.2139 15.62652 11.4591857 12.84932 7.66032857"></polygon>
                            <path d="M0,17.6015571 L19.7028,17.6015571 L19.7028,0.428271429 L0,0.428271429 L0,17.6015571 Z M0.96,16.5729857 L18.7428,16.5729857 L18.7428,1.45727143 L0.96,1.45727143 L0.96,16.5729857 Z" id="Fill-2"></path>
                            <polygon id="Fill-3" points="3.312 6.50155714 5.498 6.50155714 5.498 4.1817 3.312 4.1817"></polygon>
                        </g>
                    </g>
                    <g id="icon_graph" transform="translate(85.000000, 16.000000)" fill="#0B0014">
                        <path d="M0,18.5794214 L22.65822,18.5794214 L22.65822,0.452064286 L0,0.452064286 L0,18.5794214 Z M1.104,17.4937071 L21.55422,17.4937071 L21.55422,1.53823095 L1.104,1.53823095 L1.104,17.4937071 Z" id="Fill-1"></path>
                        <polygon id="Fill-2" points="7.8453 5.96930238 14.81338 5.96930238 14.81338 5.06454048 7.8453 5.06454048"></polygon>
                        <polygon id="Fill-3" points="10.86934 11.8294452 11.78934 11.8294452 11.78934 3.72142143 10.86934 3.72142143"></polygon>
                        <polygon id="Fill-4" points="5.6327 8.06156429 17.02552 8.06156429 17.02552 7.15680238 5.6327 7.15680238"></polygon>
                        <polygon id="Fill-5" points="4.42934 10.323469 18.22934 10.323469 18.22934 9.41870714 4.42934 9.41870714"></polygon>
                        <polygon id="Fill-6" points="4.67958 12.5853738 9.8716 12.5853738 9.8716 11.6806119 4.67958 11.6806119"></polygon>
                        <polygon id="Fill-7" points="12.78708 12.5853738 17.9791 12.5853738 17.9791 11.6806119 12.78708 11.6806119"></polygon>
                        <polygon id="Fill-8" points="13.9265 14.8472786 17.18422 14.8472786 17.18422 13.9425167 13.9265 13.9425167"></polygon>
                        <polygon id="Fill-9" points="5.474 14.8472786 8.73172 14.8472786 8.73172 13.9425167 5.474 13.9425167"></polygon>
                    </g>
                    <rect id="Rectangle" stroke="#0B0014" x="0" y="65" width="31" height="31"></rect>
                    <rect id="Rectangle-Copy-2" stroke="#0B0014" x="77" y="6" width="38" height="38"></rect>
                    <rect id="Rectangle-Copy-3" stroke="#0B0014" x="164" y="44" width="31" height="31"></rect>
                    <rect id="Rectangle-Copy-5" stroke="#0B0014" x="156" y="0" width="7" height="7"></rect>
                    <rect id="Rectangle-Copy-6" stroke="#0B0014" x="39" y="34" width="12" height="12"></rect>
                </g>
            </g>
        </g>
    </g>
</svg>