<?xml version="1.0" encoding="UTF-8"?>
<svg width="22px" height="17px" viewBox="0 0 22 17" version="1.1" xmlns="http://www.w3.org/2000/svg" xmlns:xlink="http://www.w3.org/1999/xlink">
    <!-- Generator: sketchtool 53.1 (72631) - https://sketchapp.com -->
    <title>83780A31-B2AB-4179-BC36-7B44D4F0F01C@3x</title>
    <desc>Created with sketchtool.</desc>
    <g id="design" stroke="none" stroke-width="1" fill="none" fill-rule="evenodd" opacity="0.8">
        <g id="PRYV_Homepage_def" transform="translate(-569.000000, -4556.000000)" fill="#FFFFFF">
            <path d="M591,4558.01096 C590.193969,4558.35103 589.320912,4558.58646 588.408327,4558.68946 C589.341536,4558.15811 590.053043,4557.31612 590.395047,4556.31227 C589.52199,4556.80439 588.556128,4557.16244 587.521522,4557.35372 C586.703461,4556.52318 585.527928,4556 584.232091,4556 C581.741817,4556 579.720725,4557.92268 579.720725,4560.29169 C579.720725,4560.63012 579.761972,4560.95547 579.835872,4561.26938 C576.082415,4561.08954 572.760331,4559.3843 570.531287,4556.78477 C570.141161,4557.41748 569.919459,4558.15811 569.919459,4558.94451 C569.919459,4560.43229 570.718616,4561.74841 571.926803,4562.51356 C571.187798,4562.49558 570.496914,4562.29775 569.886806,4561.9773 L569.886806,4562.02962 C569.886806,4564.11089 571.443872,4565.84718 573.504492,4566.24447 C573.128115,4566.3393 572.725959,4566.38998 572.316928,4566.38998 C572.028201,4566.38998 571.746348,4566.36545 571.464495,4566.31477 C572.04195,4568.02 573.70557,4569.25765 575.680259,4569.29688 C574.135224,4570.44624 572.188032,4571.12964 570.074135,4571.12964 C569.711507,4571.12964 569.355753,4571.11002 569,4571.07242 C571.000469,4572.29208 573.37044,4573 575.920866,4573 C584.218342,4573 588.757206,4566.46028 588.757206,4560.79034 L588.743458,4560.23447 C589.630263,4559.62791 590.395047,4558.87421 591,4558.01096 Z" id="twitter-logo-silhouette-copy-5"></path>
        </g>
    </g>
</svg>