<?xml version="1.0" encoding="UTF-8"?>
<svg width="20px" height="19px" viewBox="0 0 20 19" version="1.1" xmlns="http://www.w3.org/2000/svg" xmlns:xlink="http://www.w3.org/1999/xlink">
    <!-- Generator: sketchtool 53.1 (72631) - https://sketchapp.com -->
    <title>58982D72-2B9F-4AE5-B4D4-F62934C41731@3x</title>
    <desc>Created with sketchtool.</desc>
    <g id="design" stroke="none" stroke-width="1" fill="none" fill-rule="evenodd" opacity="0.8">
        <g id="PRYV_Homepage_def" transform="translate(-530.000000, -4554.000000)" fill="#FFFFFF" fill-rule="nonzero">
            <g id="linkedin-logo" transform="translate(530.000000, 4554.000000)">
                <path d="M20,11.6488849 L20,19 L15.7133524,19 L15.7133524,12.1412183 C15.7133524,10.4182364 15.0933351,9.24236865 13.5417107,9.24236865 C12.3572423,9.24236865 11.6523644,10.0348173 11.3422627,10.8013781 C11.2291772,11.0754206 11.2000688,11.4568518 11.2000688,11.8404558 L11.2000688,19 L6.91197976,19 C6.91197976,19 6.96973149,7.38347502 6.91197976,6.1799164 L11.1996503,6.1799164 L11.1996503,7.99711194 C11.190955,8.01070311 11.1796558,8.02535754 11.1714719,8.03853266 L11.1996503,8.03853266 L11.1996503,7.99711194 C11.7693093,7.12482664 12.7866604,5.87873782 15.0638082,5.87873782 C17.8850406,5.87869159 20,7.71105007 20,11.6488849 Z M2.42645606,0 C0.959506367,0 0,0.956606051 0,2.2145756 C0,3.44513165 0.931746478,4.43076919 2.36954131,4.43076919 L2.39818468,4.43076919 C3.89354524,4.43076919 4.82352476,3.44531657 4.82352476,2.2145756 C4.79534638,0.956606051 3.89354524,0 2.42645606,0 Z M0.254674891,19 L4.54113648,19 L4.54113648,6.1799164 L0.254674891,6.1799164 L0.254674891,19 Z" id="LinkedIn"></path>
            </g>
        </g>
    </g>
</svg>