<?xml version="1.0" encoding="UTF-8"?>
<svg width="101px" height="40px" viewBox="0 0 101 40" version="1.1" xmlns="http://www.w3.org/2000/svg" xmlns:xlink="http://www.w3.org/1999/xlink">
    <!-- Generator: sketchtool 53.1 (72631) - https://sketchapp.com -->
    <title>05BF8F58-6A35-4D87-92A8-49764A37316A@3x</title>
    <desc>Created with sketchtool.</desc>
    <g id="design" stroke="none" stroke-width="1" fill="none" fill-rule="evenodd">
        <g id="PRYV_Homepage_def" transform="translate(-131.000000, -36.000000)">
            <g id="Logo---Pryv" transform="translate(131.000000, 36.000000)">
                <path d="M11.4718831,20.9211429 C14.2921992,20.9211429 15.8928326,19.0281774 15.8928326,16.109872 C15.8928326,13.2310446 14.2921992,11.3775076 11.5479968,11.3775076 L7.47008456,11.3775076 L7.47008456,20.9211429 L11.4718831,20.9211429 Z M2.47727883,11.3775076 L0,11.3775076 L0,7 L12.3865376,7 C17.4555048,7 21,10.6675465 21,16.109872 C21,21.5521479 17.4555048,25.3381285 12.3865376,25.3381285 L7.47008456,25.3381285 L7.47008456,35 L2.47727883,35 L2.47727883,11.3775076 Z" id="Fill-1" fill="#1A1A1A"></path>
                <path d="M24.5203125,19.299794 C24.5203125,18.7195444 24.1950237,18.4487095 23.625985,18.4487095 L22,18.4487095 L22,14.2707864 L26.7154892,14.2707864 C28.5446841,14.2707864 29.4796535,15.0057433 29.4796535,16.6692839 L29.4796535,17.8297831 C29.4796535,18.5648371 29.3983696,19.0676845 29.3983696,19.0676845 L29.4796535,19.0676845 C30.414623,16.2436932 32.8942935,14 36.0649796,14 C36.5122453,14 37,14.0773537 37,14.0773537 L37,18.9129286 C37,18.9129286 36.4715523,18.8356235 35.7398438,18.8356235 C33.5446671,18.8356235 31.0243546,20.0347994 30.0893852,22.9747727 C29.8048913,23.9420818 29.6422214,25.0251302 29.6422214,26.1857265 L29.6422214,34 L24.5203125,34 L24.5203125,19.299794 Z" id="Fill-3" fill="#1A1A1A"></path>
                <polygon id="Fill-5" fill="#BD1026" points="38 40 78 40 78 0 38 0"></polygon>
                <path d="M82.4942769,19.9411516 C82.3027941,19.4314025 81.9578945,19.235315 81.4216081,19.235315 L81,19.235315 L81,15 L83.7969749,15 C85.4062184,15 86.1723417,15.5098474 86.6706102,16.8823622 L90.3487231,27.3921358 C90.770139,28.5687106 91.0766364,30.254936 91.0766364,30.254936 L91.1533929,30.254936 C91.1533929,30.254936 91.4598903,28.5687106 91.843,27.3921358 L95.5211128,16.8823622 C96.0191411,15.5098474 96.8238109,15 98.3947482,15 L101,15 L101,19.235315 L100.540326,19.235315 C100.003847,19.235315 99.6590439,19.4314025 99.467465,19.9411516 L93.8735632,35 L88.0882748,35 L82.4942769,19.9411516 Z" id="Fill-7" fill="#1A1A1A"></path>
                <path d="M56.0791162,35 L60.920932,35 L60.920932,25.6735154 L67.4954279,12.350942 C68.0044096,11.5627554 68.2386116,11.4037716 69.0999096,11.4037716 L70,11.4037716 L70,7 L67.3780373,7 C65.5778083,7 64.7558817,7.27777283 63.7384008,9.06319884 L58.5554626,20.144739 L58.4818824,20.144739 L53.261551,9.06319884 C52.2052294,7.27777283 51.4221435,7 49.6220592,7 L47,7 L47,11.4037716 L47.8999457,11.4037716 C48.7614849,11.4037716 48.9955904,11.5627554 49.5044274,12.350942 L56.0791162,25.6735154 L56.0791162,35 Z" id="Fill-8" fill="#FFFFFF"></path>
                <polygon id="Fill-5" fill="#BD1026" points="38 40 78 40 78 0 38 0"></polygon>
                <path d="M56.0791162,35 L60.920932,35 L60.920932,25.6735154 L67.4954279,12.350942 C68.0044096,11.5627554 68.2386116,11.4037716 69.0999096,11.4037716 L70,11.4037716 L70,7 L67.3780373,7 C65.5778083,7 64.7558817,7.27777283 63.7384008,9.06319884 L58.5554626,20.144739 L58.4818824,20.144739 L53.261551,9.06319884 C52.2052294,7.27777283 51.4221435,7 49.6220592,7 L47,7 L47,11.4037716 L47.8999457,11.4037716 C48.7614849,11.4037716 48.9955904,11.5627554 49.5044274,12.350942 L56.0791162,25.6735154 L56.0791162,35 Z" id="Fill-8" fill="#FFFFFF"></path>
            </g>
        </g>
    </g>
</svg>